# xmcd CD database file
#
# Track frame offsets:
#	150
#	11517
#	25184
#	43067
#	58612
#	69956
#	90294
#	114354
#	138154
#	154968
#	177254
#	186349
#	213094
#	227095
#	243079
#
# Disc length: 3485 seconds
#
# Revision: 0
# Processed by: cddbd v1.5.2PL0 Copyright (c) Steve Scherf et al.
# Submitted via: CDex 1.70beta2
#
DISCID=b80d9b0f
DTITLE=Karita Mattila - Fever
DYEAR=2007
DGENRE=Jazz
TTITLE0=It's All Right With Me (Live)
TTITLE1=My Favorite Things (Live)
TTITLE2=Blue Moon (Live)
TTITLE3=Fever (Live)
TTITLE4=O Pato (Live)
TTITLE5=Corcovado (Live)
TTITLE6=Stormy Weather (Live)
TTITLE7=Nice Work If You Can Get It (Live)
TTITLE8=Smoke Gets In Your Eyes (Live)
TTITLE9=The Man I Love (Live)
TTITLE10=You Do Something To Me (Live)
TTITLE11=Love For Sale (Live)
TTITLE12=Black Coffee (Live)
TTITLE13=Lush Life (Live)
TTITLE14=Come Rain Or Come Shine (Live)
EXTD=YEAR: 2007
EXTT0=
EXTT1=
EXTT2=
EXTT3=
EXTT4=
EXTT5=
EXTT6=
EXTT7=
EXTT8=
EXTT9=
EXTT10=
EXTT11=
EXTT12=
EXTT13=
EXTT14=
PLAYORDER=
